<svg xmlns="http://www.w3.org/2000/svg" width="1200" height="1060" viewBox="0 0 1200 1060" role="img" aria-labelledby="title desc">
<title id="title">Day 0 · 西安启程 · 飞抵深圳入住地图式路线图</title><desc id="desc">9 月 30 日 · ZH9206 已确认：西安 18:15 → 深圳 21:15｜酒店接机待确认；标注地点、交通方式、顺序与可选支线，海岸线及距离为示意。</desc>
<defs><clipPath id="map"><rect x="28" y="154" width="1144" height="730" rx="20"/></clipPath><pattern id="sea" width="42" height="42" patternUnits="userSpaceOnUse"><circle cx="7" cy="7" r="1" fill="#c0dce5"/></pattern></defs>
<rect width="1200" height="1060" rx="26" fill="#f8faf8"/><g font-family="-apple-system, BlinkMacSystemFont, PingFang SC, Microsoft YaHei, sans-serif">
<text x="36" y="47" font-size="18" fill="#65838e" font-weight="600" text-anchor="start">XI’AN → SHENZHEN / DAY 0</text><text x="36" y="91" font-size="34" fill="#234c60" font-weight="700" text-anchor="start">西安启程 · 飞抵深圳入住</text><text x="36" y="128" font-size="20" fill="#667c86" font-weight="400" text-anchor="start">9 月 30 日 · ZH9206 已确认：西安 18:15 → 深圳 21:15｜酒店接机待确认</text>
<rect x="28" y="154" width="1144" height="730" rx="20" fill="#e4f1f5"/><rect x="28" y="154" width="1144" height="730" rx="20" fill="url(#sea)"/>
<g clip-path="url(#map)"><path d="M28 154H902L1002 201 1035 280 981 340 1026 392 966 463 949 505 908 559 889 606 837 662 808 694 748 716 714 750 669 752 624 780 576 776 545 807 460 810 376 846 288 838 206 871H28Z" fill="#f2eee2" stroke="#c3cfc5" stroke-width="3"/><path d="M53 322Q285 221 474 340T853 301L826 369Q653 473 432 411T57 431Z" fill="#dce8d6"/><path d="M357 161Q434 436 573 756" fill="none" stroke="#fff" stroke-width="10" stroke-linecap="round" stroke-linejoin="round"/><path d="M166 568Q522 486 911 576" fill="none" stroke="#fff" stroke-width="10" stroke-linecap="round" stroke-linejoin="round"/></g><text x="140" y="252" font-size="26" fill="#93a38e" font-weight="600" text-anchor="start">中国内地 · 航程示意</text><text x="451" y="259" font-size="24" fill="#93a38e" font-weight="400" text-anchor="start">陕西</text><text x="526" y="716" font-size="24" fill="#93a38e" font-weight="400" text-anchor="start">广东</text><text x="669" y="854" font-size="28" fill="#85adbc" font-weight="400" text-anchor="start">南 海</text><text x="1110" y="190" font-size="19" fill="#476b78" font-weight="700" text-anchor="middle">N</text><path d="M1110 201L1101 230L1110 221L1119 230Z" fill="#476b78"/><path d="M426 317Q444 496 682 684" fill="none" stroke="#227eae" stroke-width="7" stroke-linecap="round" stroke-linejoin="round"/><path d="M-9 -7L0 0L-9 7" fill="none" stroke="#227eae" stroke-width="4" stroke-linecap="round" stroke-linejoin="round" transform="translate(477 462) rotate(60)"/><circle cx="425" cy="300" r="20" fill="#23576b" stroke="white" stroke-width="4"/><text x="425" y="307" font-size="20" fill="white" font-weight="700" text-anchor="middle">1</text><g><rect x="468" y="287" width="365" height="66" rx="12" fill="#fff" stroke="#dce6e8"/><text x="482" y="314" font-size="22" fill="#263e48" font-weight="600" text-anchor="start">西安咸阳机场 T2</text><text x="482" y="338" font-size="16" fill="#667c86" font-weight="400" text-anchor="start">16:15 前到达 · 18:15 起飞</text></g><circle cx="540" cy="525" r="20" fill="#227eae" stroke="white" stroke-width="4"/><text x="540" y="532" font-size="20" fill="white" font-weight="700" text-anchor="middle">2</text><g><rect x="147" y="498" width="327" height="66" rx="12" fill="#fff" stroke="#dce6e8"/><text x="161" y="525" font-size="22" fill="#263e48" font-weight="600" text-anchor="start">ZH9206 · 飞往深圳</text><text x="161" y="549" font-size="16" fill="#667c86" font-weight="400" text-anchor="start">约 3 小时 · 不代表实际航路</text></g><path d="M471 534L518 528" fill="none" stroke="#a4b1b5" stroke-width="2" stroke-linecap="round" stroke-linejoin="round"/><circle cx="694" cy="699" r="20" fill="#23576b" stroke="white" stroke-width="4"/><text x="694" y="706" font-size="20" fill="white" font-weight="700" text-anchor="middle">3</text><g><rect x="299" y="750" width="363" height="66" rx="12" fill="#fff" stroke="#dce6e8"/><text x="313" y="777" font-size="22" fill="#263e48" font-weight="600" text-anchor="start">深圳宝安机场 T3</text><text x="313" y="801" font-size="16" fill="#667c86" font-weight="400" text-anchor="start">21:15 到达 · 提取行李后接机</text></g><path d="M661 778L690 724" fill="none" stroke="#a4b1b5" stroke-width="2" stroke-linecap="round" stroke-linejoin="round"/><rect x="783" y="501" width="366" height="334" rx="18" fill="#fff" stroke="#b8ccd3" stroke-width="2"/><text x="803" y="538" font-size="21" fill="#23576b" font-weight="600" text-anchor="start">宝安机场 → 酒店 · 局部示意</text><rect x="799" y="556" width="334" height="212" fill="#f2eee2"/><path d="M799 557H855L843 651 876 768H799Z" fill="#e4f1f5"/><path d="M890 711Q973 704 1043 626" fill="none" stroke="#238b70" stroke-width="6" stroke-linecap="round" stroke-linejoin="round"/><path d="M-9 -7L0 0L-9 7" fill="none" stroke="#238b70" stroke-width="4" stroke-linecap="round" stroke-linejoin="round" transform="translate(983 678) rotate(-37)"/><circle cx="892" cy="710" r="20" fill="#23576b" stroke="white" stroke-width="4"/><text x="892" y="717" font-size="20" fill="white" font-weight="700" text-anchor="middle">3</text><circle cx="1048" cy="621" r="20" fill="#23576b" stroke="white" stroke-width="4"/><text x="1048" y="628" font-size="20" fill="white" font-weight="700" text-anchor="middle">4</text><text x="854" y="748" font-size="18" fill="#263e48" font-weight="400" text-anchor="start">宝安 T3</text><text x="897" y="592" font-size="20" fill="#263e48" font-weight="400" text-anchor="start">悦美四季 · 航空路</text><text x="889" y="795" font-size="17" fill="#667c86" font-weight="400" text-anchor="start">约 22:15 入住 · 接机待确认</text><path d="M717 699L776 689" fill="none" stroke="#8d98a0" stroke-width="2" stroke-linecap="round" stroke-linejoin="round" stroke-dasharray="5 6"/><path d="M45 921h42" fill="none" stroke="#227eae" stroke-width="5" stroke-linecap="round" stroke-linejoin="round"/><text x="100" y="928" font-size="18" fill="#263e48" font-weight="400" text-anchor="start">飞机</text><path d="M325 921h42" fill="none" stroke="#238b70" stroke-width="5" stroke-linecap="round" stroke-linejoin="round"/><text x="380" y="928" font-size="18" fill="#263e48" font-weight="400" text-anchor="start">接机 / 出租</text><path d="M605 921h42" fill="none" stroke="#d66b49" stroke-width="5" stroke-linecap="round" stroke-linejoin="round"/><text x="660" y="928" font-size="18" fill="#263e48" font-weight="400" text-anchor="start">航站楼内步行</text><path d="M885 921h42" fill="none" stroke="#8d98a0" stroke-width="5" stroke-linecap="round" stroke-linejoin="round" stroke-dasharray="7 7"/><text x="940" y="928" font-size="18" fill="#263e48" font-weight="400" text-anchor="start">局部位置示意</text><text x="42" y="973" font-size="21" fill="#23576b" font-weight="600" text-anchor="start">落地后先提行李、联系接机；按实际航班与酒店通知安排。</text><text x="42" y="1012" font-size="17" fill="#70828a" font-weight="400" text-anchor="start">地理位置及海岸线为简化示意；连线表示行程方向，不代表实际道路、轨道或比例。</text></g></svg>
