<svg xmlns="http://www.w3.org/2000/svg" width="1200" height="1060" viewBox="0 0 1200 1060" role="img" aria-labelledby="title desc">
<title id="title">Day 1 · 深圳初见 · 换宿与城市海湾地图式路线图</title><desc id="desc">10 月 1 日 · 宝安 → 民治 → 福田 → 深圳湾｜14:30 景点时间随入住进度顺延；标注地点、交通方式、顺序与可选支线，海岸线及距离为示意。</desc>
<defs><clipPath id="map"><rect x="28" y="154" width="1144" height="730" rx="20"/></clipPath><pattern id="sea" width="42" height="42" patternUnits="userSpaceOnUse"><circle cx="7" cy="7" r="1" fill="#c0dce5"/></pattern></defs>
<rect width="1200" height="1060" rx="26" fill="#f8faf8"/><g font-family="-apple-system, BlinkMacSystemFont, PingFang SC, Microsoft YaHei, sans-serif">
<text x="36" y="47" font-size="18" fill="#65838e" font-weight="600" text-anchor="start">SHENZHEN / DAY 1</text><text x="36" y="91" font-size="34" fill="#234c60" font-weight="700" text-anchor="start">深圳初见 · 换宿与城市海湾</text><text x="36" y="128" font-size="20" fill="#667c86" font-weight="400" text-anchor="start">10 月 1 日 · 宝安 → 民治 → 福田 → 深圳湾｜14:30 景点时间随入住进度顺延</text>
<rect x="28" y="154" width="1144" height="730" rx="20" fill="#e4f1f5"/><rect x="28" y="154" width="1144" height="730" rx="20" fill="url(#sea)"/>
<g clip-path="url(#map)"><path d="M82 154H1182V785L1090 822 995 800 910 808 861 752 820 724 737 717 670 741 589 764 501 774 440 766 375 749 316 738 260 687 198 609 128 553 84 499Z" fill="#f2eee2" stroke="#c3cfc5" stroke-width="3"/><path d="M587 356Q770 311 1017 339L1102 472 997 487 893 438 791 481 675 440Z" fill="#dce8d6"/><path d="M735 510Q780 472 822 500L858 553 805 573 733 551Z" fill="#dce8d6"/><path d="M182 211Q263 446 355 627M328 174Q447 344 446 719M646 181L654 663M970 155L978 746M169 323Q619 233 1126 328M271 598Q603 568 1120 634" fill="none" stroke="#fff" stroke-width="10" stroke-linecap="round" stroke-linejoin="round"/></g><text x="1110" y="190" font-size="19" fill="#476b78" font-weight="700" text-anchor="middle">N</text><path d="M1110 201L1101 230L1110 221L1119 230Z" fill="#476b78"/><text x="997" y="278" font-size="26" fill="#93a38e" font-weight="600" text-anchor="start">龙 华</text><text x="934" y="694" font-size="26" fill="#93a38e" font-weight="600" text-anchor="start">福 田</text><text x="206" y="459" font-size="26" fill="#93a38e" font-weight="600" text-anchor="start">宝 安</text><text x="482" y="827" font-size="30" fill="#85adbc" font-weight="400" text-anchor="start">深 圳 湾</text><path d="M191 299Q405 185 907 281" fill="none" stroke="#238b70" stroke-width="6" stroke-linecap="round" stroke-linejoin="round"/><path d="M-9 -7L0 0L-9 7" fill="none" stroke="#238b70" stroke-width="4" stroke-linecap="round" stroke-linejoin="round" transform="translate(614 243) rotate(10)"/><circle cx="181" cy="300" r="20" fill="#23576b" stroke="white" stroke-width="4"/><text x="181" y="307" font-size="20" fill="white" font-weight="700" text-anchor="middle">1</text><g><rect x="67" y="170" width="325" height="66" rx="12" fill="#fff" stroke="#dce6e8"/><text x="81" y="197" font-size="22" fill="#263e48" font-weight="600" text-anchor="start">悦美四季 · 退房出发</text><text x="81" y="221" font-size="16" fill="#667c86" font-weight="400" text-anchor="start">14:00 前退房 · 打车换宿</text></g><circle cx="919" cy="282" r="20" fill="#23576b" stroke="white" stroke-width="4"/><text x="919" y="289" font-size="20" fill="white" font-weight="700" text-anchor="middle">2</text><g><rect x="786" y="177" width="311" height="66" rx="12" fill="#fff" stroke="#dce6e8"/><text x="800" y="204" font-size="22" fill="#263e48" font-weight="600" text-anchor="start">全季酒店 · 民治</text><text x="800" y="228" font-size="16" fill="#667c86" font-weight="400" text-anchor="start">放行李后出发 · 不硬卡时间</text></g><path d="M913 303L812 330L861 400L881 522" fill="none" stroke="#7961ad" stroke-width="6" stroke-linecap="round" stroke-linejoin="round"/><path d="M-9 -7L0 0L-9 7" fill="none" stroke="#7961ad" stroke-width="4" stroke-linecap="round" stroke-linejoin="round" transform="translate(852 391) rotate(53)"/><rect x="806" y="324" width="12" height="12" rx="3" fill="#fff" stroke="#7961ad" stroke-width="3"/><text x="825" y="336" font-size="17" fill="#7961ad" font-weight="400" text-anchor="start">深圳北</text><text x="807" y="282" font-size="16" fill="#7961ad" font-weight="400" text-anchor="start">5 号线</text><text x="918" y="441" font-size="17" fill="#7961ad" font-weight="400" text-anchor="start">4 号线</text><rect x="875" y="530" width="12" height="12" rx="3" fill="#fff" stroke="#7961ad" stroke-width="3"/><text x="895" y="522" font-size="17" fill="#7961ad" font-weight="400" text-anchor="start">少年宫</text><path d="M859 536L802 536Q797 580 865 618" fill="none" stroke="#d66b49" stroke-width="6" stroke-linecap="round" stroke-linejoin="round"/><path d="M-9 -7L0 0L-9 7" fill="none" stroke="#d66b49" stroke-width="4" stroke-linecap="round" stroke-linejoin="round" transform="translate(805 576) rotate(61)"/><circle cx="789" cy="534" r="20" fill="#23576b" stroke="white" stroke-width="4"/><text x="789" y="541" font-size="20" fill="white" font-weight="700" text-anchor="middle">3</text><g><rect x="450" y="445" width="300" height="66" rx="12" fill="#fff" stroke="#dce6e8"/><text x="464" y="472" font-size="22" fill="#263e48" font-weight="600" text-anchor="start">莲花山 → 市民中心</text><text x="464" y="496" font-size="16" fill="#667c86" font-weight="400" text-anchor="start">入住后 · 步行与拍摄约 2 小时</text></g><path d="M748 510L768 526" fill="none" stroke="#a4b1b5" stroke-width="2" stroke-linecap="round" stroke-linejoin="round"/><rect x="870" y="624" width="12" height="12" rx="3" fill="#fff" stroke="#7961ad" stroke-width="3"/><text x="891" y="637" font-size="17" fill="#7961ad" font-weight="400" text-anchor="start">市民中心</text><path d="M869 635Q727 649 651 551Q501 557 392 731" fill="none" stroke="#7961ad" stroke-width="6" stroke-linecap="round" stroke-linejoin="round"/><path d="M-9 -7L0 0L-9 7" fill="none" stroke="#7961ad" stroke-width="4" stroke-linecap="round" stroke-linejoin="round" transform="translate(702 599) rotate(-141)"/><rect x="645" y="545" width="12" height="12" rx="3" fill="#fff" stroke="#7961ad" stroke-width="3"/><text x="638" y="531" font-size="17" fill="#7961ad" font-weight="400" text-anchor="start">景田</text><text x="716" y="637" font-size="16" fill="#7961ad" font-weight="400" text-anchor="start">2 号线</text><text x="473" y="643" font-size="16" fill="#7961ad" font-weight="400" text-anchor="start">9 号线</text><circle cx="380" cy="744" r="20" fill="#8d98a0" stroke="white" stroke-width="4"/><text x="380" y="751" font-size="20" fill="white" font-weight="700" text-anchor="middle">4</text><g><rect x="91" y="789" width="348" height="66" rx="12" fill="#fff" stroke="#dce6e8"/><text x="105" y="816" font-size="22" fill="#263e48" font-weight="600" text-anchor="start">深圳湾公园 · 体力不足可删</text><text x="105" y="840" font-size="16" fill="#667c86" font-weight="400" text-anchor="start">17:00 起弹性安排 · 看海与晚餐</text></g><path d="M399 757Q496 650 667 582Q721 530 865 425L833 355L927 307" fill="none" stroke="#7961ad" stroke-width="5" stroke-linecap="round" stroke-linejoin="round" stroke-dasharray="8 8"/><path d="M-9 -7L0 0L-9 7" fill="none" stroke="#7961ad" stroke-width="4" stroke-linecap="round" stroke-linejoin="round" transform="translate(697 554) rotate(-36)"/><rect x="865" y="415" width="12" height="12" rx="3" fill="#fff" stroke="#7961ad" stroke-width="3"/><text x="885" y="418" font-size="17" fill="#7961ad" font-weight="400" text-anchor="start">上梅林</text><g><rect x="736" y="776" width="401" height="66" rx="12" fill="#fff" stroke="#dce6e8"/><text x="750" y="803" font-size="22" fill="#263e48" font-weight="600" text-anchor="start">20:00 左右回民治 · 核对车票</text><text x="750" y="827" font-size="16" fill="#667c86" font-weight="400" text-anchor="start">9 号线 → 上梅林转 4 号线 → 深圳北转 5</text></g><path d="M45 921h42" fill="none" stroke="#d66b49" stroke-width="5" stroke-linecap="round" stroke-linejoin="round"/><text x="100" y="928" font-size="18" fill="#263e48" font-weight="400" text-anchor="start">步行</text><path d="M325 921h42" fill="none" stroke="#7961ad" stroke-width="5" stroke-linecap="round" stroke-linejoin="round"/><text x="380" y="928" font-size="18" fill="#263e48" font-weight="400" text-anchor="start">地铁</text><path d="M605 921h42" fill="none" stroke="#238b70" stroke-width="5" stroke-linecap="round" stroke-linejoin="round"/><text x="660" y="928" font-size="18" fill="#263e48" font-weight="400" text-anchor="start">出租 / 网约车</text><path d="M885 921h42" fill="none" stroke="#8d98a0" stroke-width="5" stroke-linecap="round" stroke-linejoin="round" stroke-dasharray="7 7"/><text x="940" y="928" font-size="18" fill="#263e48" font-weight="400" text-anchor="start">返程 / 可选</text><text x="42" y="973" font-size="21" fill="#23576b" font-weight="600" text-anchor="start">民治在 5 号线；深圳北换乘 4 号线，深圳湾返程经上梅林。</text><text x="42" y="1012" font-size="17" fill="#70828a" font-weight="400" text-anchor="start">地理位置及海岸线为简化示意；连线表示行程方向，不代表实际道路、轨道或比例。</text></g></svg>
